<svg width="65" height="28" viewBox="0 0 65 28" fill="none" xmlns="http://www.w3.org/2000/svg">
<g id="Logo" clip-path="url(#clip0_109_65)">
<g id="Vector">
<path fill-rule="evenodd" clip-rule="evenodd" d="M40.0441 22.0535C36.332 24.7896 30.9515 26.2494 26.3191 26.2494C19.8237 26.2494 13.9761 23.847 9.55218 19.8513C9.2046 19.5371 9.51603 19.1089 9.93312 19.3535C14.7074 22.1313 20.6106 23.8025 26.7084 23.8025C30.8209 23.8025 35.3449 22.9516 39.5046 21.1859C40.133 20.919 40.6586 21.5975 40.0441 22.0535Z" fill="#4C4C4D"/>
<path fill-rule="evenodd" clip-rule="evenodd" d="M41.5873 20.2878C41.1146 19.6817 38.4508 20.0014 37.2552 20.1433C36.8909 20.1877 36.8353 19.8708 37.1634 19.6427C39.285 18.1496 42.7663 18.5806 43.1722 19.0811C43.5782 19.5844 43.0666 23.074 41.0729 24.7396C40.767 24.9954 40.4751 24.8591 40.6113 24.5199C41.059 23.4021 42.0628 20.8968 41.5873 20.2878Z" fill="#4C4C4D"/>
</g>
<g id="Vector_2">
<path fill-rule="evenodd" clip-rule="evenodd" d="M37.3394 9.10212V7.65066C37.3394 7.43099 37.5063 7.28362 37.7065 7.28362H44.2047C44.4132 7.28362 44.5801 7.43377 44.5801 7.65066V8.89358C44.5773 9.10212 44.4021 9.37462 44.0907 9.80561L40.7234 14.6132C41.9747 14.5827 43.2954 14.769 44.4299 15.4085C44.6857 15.5531 44.7553 15.7644 44.7747 15.9729V17.5217C44.7747 17.7331 44.5411 17.9805 44.2965 17.8526C42.2972 16.8043 39.6418 16.6903 37.4312 17.8637C37.206 17.9861 36.9696 17.7414 36.9696 17.5301V16.0591C36.9696 15.8228 36.9724 15.4196 37.2087 15.0609L41.1099 9.46638H37.7148C37.5063 9.46638 37.3394 9.31901 37.3394 9.10212Z" fill="#4C4C4D"/>
<path fill-rule="evenodd" clip-rule="evenodd" d="M13.6349 18.1585H11.6579C11.4689 18.1446 11.3187 18.0028 11.3048 17.8221V7.6757C11.3048 7.47272 11.4744 7.31145 11.6857 7.31145H13.5293C13.7211 7.31978 13.8741 7.46716 13.888 7.65068V8.97702H13.9241C14.4052 7.69517 15.3088 7.09734 16.5267 7.09734C17.7641 7.09734 18.5371 7.69517 19.0932 8.97702C19.5715 7.69517 20.6587 7.09734 21.8238 7.09734C22.6524 7.09734 23.5588 7.43935 24.1122 8.20679C24.7378 9.06043 24.6099 10.3006 24.6099 11.3878L24.6071 17.7915C24.6071 17.9944 24.4375 18.1585 24.2262 18.1585H22.252C22.0545 18.1446 21.8961 17.9861 21.8961 17.7915V12.4138C21.8961 11.9856 21.935 10.9179 21.8404 10.5119C21.6931 9.83066 21.251 9.63879 20.6782 9.63879C20.1999 9.63879 19.6994 9.95856 19.4964 10.4702C19.2934 10.9818 19.3129 11.8382 19.3129 12.4138V17.7915C19.3129 17.9944 19.1433 18.1585 18.932 18.1585H16.9577C16.7575 18.1446 16.6018 17.9861 16.6018 17.7915L16.599 12.4138C16.599 11.2821 16.7853 9.61655 15.3811 9.61655C13.9603 9.61655 14.0159 11.2404 14.0159 12.4138V17.7915C14.0159 17.9944 13.8463 18.1585 13.6349 18.1585Z" fill="#4C4C4D"/>
<path fill-rule="evenodd" clip-rule="evenodd" d="M50.1745 7.09734C53.1081 7.09734 54.6958 9.61655 54.6958 12.8198C54.6958 15.9146 52.9412 18.3698 50.1745 18.3698C47.2938 18.3698 45.7256 15.8506 45.7256 12.7113C45.7256 9.5526 47.3133 7.09734 50.1745 7.09734ZM50.1912 9.16888C48.7342 9.16888 48.6424 11.1542 48.6424 12.3916C48.6424 13.6317 48.623 16.2788 50.1745 16.2788C51.7066 16.2788 51.7789 14.1433 51.7789 12.842C51.7789 11.9856 51.7428 10.9624 51.4842 10.1504C51.2617 9.44415 50.8196 9.16888 50.1912 9.16888Z" fill="#4C4C4D"/>
<path fill-rule="evenodd" clip-rule="evenodd" d="M58.4997 18.1585H56.531C56.3336 18.1446 56.1751 17.9861 56.1751 17.7915L56.1723 7.64234C56.189 7.45604 56.3531 7.31145 56.5533 7.31145H58.3857C58.5581 7.31978 58.6999 7.43657 58.7388 7.59507V9.14663H58.775C59.3283 7.75912 60.1041 7.09734 61.4693 7.09734C62.3563 7.09734 63.2211 7.41711 63.7772 8.29299C64.2944 9.10492 64.2944 10.4702 64.2944 11.4517V17.8387C64.2722 18.0167 64.1081 18.1585 63.9135 18.1585H61.9309C61.7502 18.1446 61.6 18.0111 61.5806 17.8387V12.3276C61.5806 11.2182 61.7085 9.5943 60.3432 9.5943C59.8622 9.5943 59.4201 9.91685 59.2004 10.4062C58.9223 11.0263 58.8862 11.6436 58.8862 12.3276V17.7915C58.8834 17.9944 58.711 18.1585 58.4997 18.1585Z" fill="#4C4C4D"/>
<path fill-rule="evenodd" clip-rule="evenodd" d="M32.1592 13.3119C32.1592 14.0821 32.1787 14.7245 31.7894 15.4085C31.4752 15.9646 30.9747 16.3066 30.4214 16.3066C29.6623 16.3066 29.2174 15.7283 29.2174 14.8746C29.2174 13.1896 30.7272 12.8837 32.1592 12.8837V13.3119ZM34.1529 18.1307C34.0222 18.2475 33.8331 18.2558 33.6858 18.178C33.0295 17.633 32.91 17.3799 32.5513 16.86C31.4669 17.9666 30.6966 18.2975 29.2924 18.2975C27.6269 18.2975 26.3339 17.2715 26.3339 15.2166C26.3339 13.6122 27.2014 12.5195 28.4416 11.9856C29.5149 11.5129 31.0136 11.4295 32.1592 11.2988V11.043C32.1592 10.5731 32.1954 10.0169 31.9173 9.61097C31.6782 9.24671 31.2166 9.09656 30.8079 9.09656C30.0543 9.09656 29.3842 9.48306 29.2201 10.2839C29.1868 10.4618 29.0561 10.637 28.8754 10.6453L26.9595 10.4396C26.7983 10.4034 26.6175 10.2727 26.6648 10.0253C27.1041 7.70071 29.2062 7 31.0859 7C32.048 7 33.3048 7.25581 34.0639 7.98433C35.026 8.88246 34.9342 10.0809 34.9342 11.385V14.4659C34.9342 15.3918 35.318 15.7978 35.6794 16.2983C35.8046 16.4762 35.8324 16.6903 35.6711 16.8238C35.2679 17.1603 34.5505 17.7859 34.1557 18.1362L34.1529 18.1307Z" fill="#4C4C4D"/>
<path fill-rule="evenodd" clip-rule="evenodd" d="M6.24134 13.3119C6.24134 14.0821 6.2608 14.7245 5.87152 15.4085C5.55731 15.9646 5.05959 16.3066 4.50347 16.3066C3.74437 16.3066 3.30226 15.7282 3.30226 14.8746C3.30226 13.1896 4.81212 12.8837 6.24134 12.8837V13.3119ZM8.23501 18.1307C8.10433 18.2475 7.91525 18.2558 7.76787 18.1779C7.11166 17.633 6.99487 17.3799 6.6334 16.8599C5.54897 17.9666 4.78153 18.2975 3.37455 18.2975C1.71177 18.2975 0.416016 17.2715 0.416016 15.2166C0.416016 13.6122 1.28634 12.5195 2.5237 11.9856C3.597 11.5129 5.09574 11.4295 6.24134 11.2988V11.043C6.24134 10.573 6.27748 10.0169 6.00221 9.61097C5.76029 9.24671 5.29872 9.09656 4.89275 9.09656C4.13922 9.09656 3.46631 9.48306 3.30226 10.2839C3.26889 10.4618 3.13821 10.637 2.96025 10.6453L1.04165 10.4396C0.880373 10.4034 0.702415 10.2727 0.746904 10.0253C1.18902 7.70071 3.28836 7 5.16803 7C6.13011 7 7.38693 7.25581 8.14603 7.98433C9.10812 8.88245 9.01636 10.0809 9.01636 11.385V14.4659C9.01636 15.3918 9.40008 15.7978 9.76155 16.2983C9.88946 16.4762 9.91727 16.6903 9.75599 16.8238C9.35281 17.1603 8.63542 17.7859 8.24057 18.1362L8.23501 18.1307Z" fill="#4C4C4D"/>
</g>
</g>
<defs>
<clipPath id="clip0_109_65">
<rect width="64.1666" height="28" fill="white" transform="translate(0.416992)"/>
</clipPath>
</defs>
</svg>
