<svg width="58" height="28" viewBox="0 0 58 28" fill="none" xmlns="http://www.w3.org/2000/svg">
<g id="Logo" clip-path="url(#clip0_109_61)">
<path id="Vector" fill-rule="evenodd" clip-rule="evenodd" d="M46.5555 12.0165C46.7738 12.3932 46.8452 12.8217 46.8688 13.3034L46.8997 13.9454V18.4352L46.9314 19.078C46.9947 20.1277 47.7689 20.9038 48.8266 20.9698L49.466 21.0015V13.9454L49.4977 13.3034C49.5239 12.827 49.5947 12.3905 49.8163 12.0111C50.0422 11.6221 50.3665 11.2993 50.7565 11.0752C51.1466 10.8511 51.5888 10.7335 52.0386 10.7343C52.4885 10.7352 52.9302 10.8543 53.3195 11.0798C53.7088 11.3054 54.0318 11.6294 54.2563 12.0192C54.4746 12.3959 54.5426 12.8324 54.5689 13.3034L54.6006 13.9434V18.4352L54.6322 19.078C54.6982 20.133 55.4663 20.9092 56.5274 20.9698L57.1668 21.0015V13.3034C57.1668 11.9421 56.6262 10.6366 55.6638 9.67389C54.7015 8.71116 53.3962 8.17004 52.035 8.1695C51.3064 8.16873 50.586 8.32345 49.9221 8.62333C49.2581 8.9232 48.6657 9.36132 48.1846 9.90842C47.7032 9.36153 47.1108 8.92352 46.4469 8.62356C45.7829 8.3236 45.0627 8.16858 44.3342 8.16883C43.2683 8.16883 42.2793 8.49222 41.46 9.05075C40.9601 8.49289 39.8417 8.16883 39.1996 8.16883V21.0015L39.8417 20.9698C40.9156 20.8991 41.6918 20.1438 41.7335 19.078L41.7679 18.4352V13.9454L41.7996 13.3034C41.8265 12.819 41.8939 12.3932 42.1128 12.0138C42.3389 11.625 42.663 11.3023 43.0528 11.0779C43.4426 10.8535 43.8844 10.7353 44.3342 10.7351C44.7843 10.7352 45.2264 10.8536 45.6163 11.0785C46.0062 11.3035 46.3301 11.6269 46.5555 12.0165ZM2.62583 20.9705L3.2679 21.0015H12.8922L12.8606 20.3614C12.7736 19.3064 12.0265 18.5356 10.968 18.4669L10.326 18.4352H4.55204L12.2502 10.7344L12.2185 10.095C12.1686 9.02919 11.3898 8.25911 10.326 8.20049L9.68389 8.17152L0.0595703 8.16883L0.0912359 8.8109C0.175453 9.85586 0.933406 10.6428 1.98309 10.7034L2.62583 10.7351H8.39975L0.701641 18.4359L0.733307 19.078C0.796638 20.1357 1.55998 20.9018 2.62583 20.9698V20.9705ZM36.6805 10.0472C37.2764 10.643 37.7492 11.3504 38.0717 12.1289C38.3942 12.9074 38.5602 13.7418 38.5602 14.5845C38.5602 15.4272 38.3942 16.2616 38.0717 17.0401C37.7492 17.8186 37.2764 18.526 36.6805 19.1218C35.4765 20.3248 33.8442 21.0005 32.1422 21.0005C30.4402 21.0005 28.8079 20.3248 27.6039 19.1218C25.0983 16.6161 25.0983 12.5528 27.6039 10.0472C28.1993 9.45161 28.9062 8.97911 29.6842 8.6567C30.4622 8.33429 31.296 8.16828 32.1382 8.16815C32.9817 8.16757 33.8171 8.33329 34.5965 8.65583C35.3759 8.97837 36.0841 9.4514 36.6805 10.0479V10.0472ZM34.8648 11.8643C35.5865 12.5865 35.9919 13.5658 35.9919 14.5868C35.9919 15.6079 35.5865 16.5872 34.8648 17.3094C34.1425 18.0311 33.1633 18.4365 32.1422 18.4365C31.1212 18.4365 30.1419 18.0311 29.4197 17.3094C28.6979 16.5872 28.2925 15.6079 28.2925 14.5868C28.2925 13.5658 28.6979 12.5865 29.4197 11.8643C30.1419 11.1426 31.1212 10.7372 32.1422 10.7372C33.1633 10.7372 34.1425 11.1426 34.8648 11.8643ZM18.6715 8.16815C19.5137 8.16837 20.3476 8.33449 21.1256 8.65701C21.9036 8.97954 22.6105 9.45216 23.2058 10.0479C25.7121 12.5528 25.7121 16.6168 23.2058 19.1218C22.0018 20.3248 20.3695 21.0005 18.6675 21.0005C16.9655 21.0005 15.3332 20.3248 14.1292 19.1218C11.6236 16.6161 11.6236 12.5528 14.1292 10.0472C14.7246 9.45161 15.4315 8.97911 16.2094 8.6567C16.9874 8.33429 17.8213 8.16828 18.6635 8.16815H18.6715ZM21.3901 11.8629C22.112 12.5852 22.5175 13.5646 22.5175 14.5858C22.5175 15.607 22.112 16.5865 21.3901 17.3087C20.6678 18.0305 19.6885 18.4359 18.6675 18.4359C17.6465 18.4359 16.6672 18.0305 15.9449 17.3087C15.2232 16.5865 14.8178 15.6072 14.8178 14.5862C14.8178 13.5651 15.2232 12.5859 15.9449 11.8636C16.6672 11.1419 17.6465 10.7365 18.6675 10.7365C19.6885 10.7365 20.6678 11.1419 21.3901 11.8636V11.8629Z" fill="#4C4C4D"/>
</g>
<defs>
<clipPath id="clip0_109_61">
<rect width="57.1666" height="28" fill="white" transform="translate(0.0595703)"/>
</clipPath>
</defs>
</svg>
