<svg width="57" height="28" viewBox="0 0 57 28" fill="none" xmlns="http://www.w3.org/2000/svg">
<g id="Logo" clip-path="url(#clip0_109_53)">
<g id="Vector">
<path d="M0.929688 20.6471L6.67811 11.7024H1.61066C1.56772 11.4447 1.54931 11.1625 1.54931 10.8496C1.54931 10.549 1.56772 10.2729 1.61066 10.0214H9.81305L9.91735 10.2975L4.12598 19.2606H9.55539C9.59833 19.5428 9.61673 19.8373 9.61673 20.1318C9.61673 20.414 9.59833 20.6839 9.55539 20.9416H1.03398L0.929688 20.6471Z" fill="#4C4C4D"/>
<path d="M17.5186 13.7454C17.5186 12.9049 17.3038 12.3283 16.8805 11.997C16.4572 11.6718 15.8376 11.5062 15.0278 11.5062C14.5308 11.5062 14.0646 11.543 13.6351 11.6227C13.1996 11.7025 12.7824 11.8007 12.3652 11.9295C12.0953 11.4632 11.9603 10.8988 11.9603 10.2485C12.445 10.0952 12.9726 9.97245 13.5554 9.88657C14.1382 9.80068 14.6965 9.75773 15.2364 9.75773C16.6535 9.75773 17.7333 10.0829 18.4756 10.727C19.2118 11.3712 19.586 12.408 19.586 13.8252V20.6595C19.0891 20.7699 18.4879 20.8926 17.7762 21.0092C17.0646 21.1319 16.3406 21.1871 15.6045 21.1871C14.9112 21.1871 14.2793 21.1257 13.721 20.9969C13.1628 20.8681 12.6842 20.6656 12.2916 20.3773C11.899 20.0951 11.5984 19.7331 11.3836 19.2914C11.1689 18.8497 11.0646 18.3159 11.0646 17.6963C11.0646 17.089 11.1873 16.5491 11.4388 16.089C11.6842 15.6289 12.0217 15.2424 12.4511 14.9417C12.8744 14.635 13.3652 14.408 13.9235 14.2608C14.4756 14.1135 15.0585 14.0338 15.6719 14.0338C16.1259 14.0338 16.5002 14.046 16.7885 14.0644C17.0768 14.0829 17.3222 14.1135 17.5247 14.1381V13.7454H17.5186ZM17.5186 15.8129C17.3038 15.7822 17.0339 15.7577 16.7087 15.727C16.3836 15.6963 16.1075 15.6841 15.8805 15.6841C14.9971 15.6841 14.3284 15.8497 13.8683 16.1749C13.4082 16.5 13.175 16.9969 13.175 17.6656C13.175 18.089 13.2548 18.4264 13.4082 18.6656C13.5615 18.9049 13.7578 19.089 13.991 19.2178C14.2241 19.3466 14.4818 19.4264 14.7701 19.4509C15.0523 19.4816 15.3223 19.4939 15.5799 19.4939C15.9051 19.4939 16.2425 19.4754 16.5922 19.4386C16.9419 19.4018 17.2486 19.3528 17.5186 19.2791V15.8129Z" fill="#4C4C4D"/>
<path d="M21.8866 10.0219C22.0277 9.9912 22.1749 9.9728 22.3222 9.96053C22.4694 9.94826 22.6228 9.94212 22.7823 9.94212C22.9234 9.94212 23.0706 9.94826 23.2301 9.96053C23.3835 9.9728 23.5369 9.99734 23.678 10.0219C23.6902 10.0526 23.7086 10.1384 23.7332 10.2857C23.7516 10.4329 23.7761 10.5924 23.7945 10.7642C23.8129 10.936 23.8375 11.0955 23.8559 11.255C23.8743 11.4145 23.8866 11.5127 23.8866 11.5556C24.0277 11.3286 24.1994 11.1078 24.3958 10.893C24.5921 10.6783 24.8313 10.4881 25.1074 10.3164C25.3835 10.1446 25.6964 10.0096 26.046 9.91145C26.3957 9.81329 26.7822 9.76421 27.2055 9.76421C27.8436 9.76421 28.4387 9.86851 28.9847 10.0832C29.5307 10.2979 29.9969 10.6231 30.3896 11.0709C30.7822 11.5188 31.0828 12.0893 31.3037 12.7765C31.5245 13.4636 31.635 14.2795 31.635 15.2182C31.635 17.0954 31.1258 18.5617 30.1135 19.6169C29.0951 20.6721 27.6595 21.2058 25.8006 21.2058C25.4878 21.2058 25.1688 21.1874 24.8436 21.1445C24.5185 21.1016 24.2301 21.0463 23.9908 20.9727V25.9788C23.8191 26.0095 23.6412 26.0279 23.4448 26.0402C23.2547 26.0524 23.0767 26.0586 22.9234 26.0586C22.77 26.0586 22.5921 26.0524 22.4019 26.0402C22.2117 26.0279 22.0338 26.0034 21.8804 25.9788V10.0219H21.8866ZM23.997 19.1568C24.2669 19.2549 24.543 19.3286 24.8252 19.3715C25.1074 19.4144 25.4755 19.4329 25.9356 19.4329C26.4448 19.4329 26.9172 19.3531 27.3405 19.1875C27.7638 19.0218 28.1319 18.7703 28.4387 18.4329C28.7454 18.0893 28.9847 17.6599 29.1626 17.1445C29.3405 16.6292 29.4264 16.0096 29.4264 15.304C29.4264 14.1691 29.2178 13.2673 28.8006 12.5985C28.3835 11.9298 27.6963 11.5986 26.7454 11.5986C26.3896 11.5986 26.0522 11.6599 25.7209 11.7887C25.3957 11.9176 25.1013 12.1078 24.8497 12.3654C24.5921 12.6231 24.3896 12.9421 24.2301 13.3347C24.0706 13.7274 23.997 14.1875 23.997 14.7274V19.1568Z" fill="#4C4C4D"/>
<path d="M34.2607 11.6778H32.8742C32.8435 11.5613 32.8251 11.4324 32.8129 11.2852C32.8006 11.138 32.7944 10.9907 32.7944 10.8496C32.7944 10.7085 32.8006 10.5613 32.8129 10.414C32.8251 10.2668 32.8497 10.1318 32.8742 10.0214H36.3282V20.9477C36.1748 20.9784 35.9969 20.9968 35.8067 21.0091C35.6165 21.0213 35.4386 21.0275 35.2852 21.0275C35.1441 21.0275 34.9785 21.0213 34.7822 21.0091C34.592 20.9968 34.4141 20.9723 34.2607 20.9477V11.6778Z" fill="#4C4C4D"/>
<path d="M40.8619 16.0032C40.8925 17.1934 41.1993 18.0707 41.7882 18.6229C42.3772 19.175 43.2483 19.4511 44.3956 19.4511C45.4017 19.4511 46.3649 19.2732 47.2729 18.9173C47.3894 19.132 47.4814 19.3897 47.5489 19.6965C47.6225 20.0032 47.6594 20.3038 47.6778 20.6044C47.2115 20.8007 46.6962 20.9541 46.1318 21.0523C45.5735 21.1504 44.9477 21.1995 44.2667 21.1995C43.2729 21.1995 42.4201 21.0584 41.7085 20.7823C40.9968 20.5063 40.414 20.1136 39.9539 19.6106C39.4938 19.1075 39.1564 18.5124 38.9416 17.8192C38.7269 17.1321 38.6226 16.3775 38.6226 15.5493C38.6226 14.7394 38.7269 13.9848 38.9294 13.2793C39.1318 12.5738 39.4508 11.9665 39.8741 11.445C40.2974 10.9297 40.8373 10.5125 41.4815 10.2119C42.1257 9.90512 42.8925 9.75175 43.7698 9.75175C44.5244 9.75175 45.1808 9.88058 45.7514 10.1383C46.3219 10.3959 46.7943 10.7456 47.1808 11.1935C47.5612 11.6413 47.8557 12.175 48.052 12.7885C48.2483 13.4082 48.3526 14.0769 48.3526 14.8008C48.3526 14.9971 48.3465 15.2118 48.3281 15.4266C48.3158 15.6474 48.2974 15.8376 48.2851 15.991H40.8619V16.0032ZM46.2729 14.4266C46.2729 14.0278 46.2176 13.6474 46.1133 13.2855C46.0091 12.9235 45.8496 12.6106 45.6471 12.3407C45.4385 12.0708 45.1808 11.856 44.8618 11.6904C44.5428 11.5247 44.1624 11.445 43.7207 11.445C42.8557 11.445 42.1931 11.7088 41.7269 12.2303C41.2668 12.7579 40.9846 13.4879 40.8864 14.4266H46.2729Z" fill="#4C4C4D"/>
<path d="M50.6839 10.0214C50.8373 9.99074 50.9907 9.97234 51.1318 9.96007C51.2729 9.9478 51.4201 9.94166 51.5796 9.94166C51.733 9.94166 51.8925 9.9478 52.0459 9.96007C52.1992 9.97234 52.3465 9.99688 52.4692 10.0214C52.5121 10.2361 52.5551 10.5122 52.598 10.8619C52.6409 11.2116 52.6594 11.5061 52.6594 11.7453C52.96 11.2607 53.3526 10.8435 53.8434 10.4877C54.3342 10.1318 54.9599 9.95393 55.7268 9.95393C55.8434 9.95393 55.9599 9.96007 56.0765 9.9662C56.1992 9.97234 56.2974 9.98461 56.3833 9.99688C56.4139 10.1257 56.4323 10.2607 56.4446 10.4018C56.4569 10.5429 56.463 10.6901 56.463 10.8496C56.463 11.0214 56.4507 11.1993 56.4323 11.3834C56.4139 11.5674 56.3832 11.7453 56.3587 11.9171C56.2421 11.8864 56.1256 11.8742 56.009 11.8742C55.8863 11.8742 55.7943 11.8742 55.7207 11.8742C55.3403 11.8742 54.9722 11.9294 54.6225 12.0337C54.2728 12.138 53.96 12.3281 53.6839 12.5981C53.4078 12.868 53.187 13.2361 53.0213 13.7085C52.8557 14.1748 52.7759 14.7821 52.7759 15.5183V20.9477C52.6225 20.9784 52.4446 20.9968 52.2544 21.0091C52.0643 21.0213 51.8864 21.0275 51.733 21.0275C51.5796 21.0275 51.4017 21.0213 51.2115 21.0091C51.0213 20.9968 50.8373 20.9723 50.6655 20.9477V10.0214H50.6839Z" fill="#4C4C4D"/>
<path d="M38.3342 3.59225H36.2729L37.733 2.13214C37.6164 1.97263 37.4876 1.81926 37.3526 1.67816C37.2115 1.53706 37.0643 1.40822 36.8986 1.29779L35.4385 2.75791V0.696571C35.2483 0.665896 35.052 0.647491 34.8496 0.647491H34.8434C34.641 0.647491 34.4447 0.665896 34.2545 0.696571V2.75791L32.7944 1.29779C32.6349 1.41436 32.4815 1.54319 32.3404 1.67816C32.1993 1.81926 32.0766 1.9665 31.96 2.13214L33.4263 3.59225H31.3649C31.3649 3.59225 31.3158 3.97875 31.3158 4.18121C31.3158 4.38366 31.3343 4.57998 31.3649 4.77016H33.4263L31.9661 6.23027C32.1931 6.54929 32.4753 6.83149 32.8005 7.06462L34.2606 5.60451V7.66584C34.4508 7.69652 34.6471 7.71492 34.8496 7.71492H34.8557C35.0582 7.71492 35.2545 7.69652 35.4446 7.66584V5.60451L36.9048 7.06462C37.0643 6.94806 37.2176 6.81922 37.3587 6.68426C37.4998 6.54315 37.6287 6.39591 37.7391 6.23027L36.279 4.77016H38.3403C38.371 4.57998 38.3894 4.38366 38.3894 4.18121V4.17507C38.3833 3.97875 38.371 3.78244 38.3342 3.59225ZM35.733 4.18734C35.733 4.45114 35.6839 4.70268 35.598 4.9358C35.3649 5.02169 35.1134 5.07077 34.8496 5.07077C34.5858 5.07077 34.3342 5.02169 34.1011 4.9358C34.0152 4.70268 33.9661 4.45114 33.9661 4.18734V4.18121C33.9661 3.91741 34.0152 3.66587 34.1011 3.43275C34.3342 3.34686 34.5858 3.29778 34.8496 3.29778C35.1134 3.29778 35.3649 3.34686 35.598 3.43275C35.6839 3.66587 35.733 3.91741 35.733 4.18734Z" fill="#4C4C4D"/>
</g>
</g>
<defs>
<clipPath id="clip0_109_53">
<rect width="56" height="28" fill="white" transform="translate(0.928711)"/>
</clipPath>
</defs>
</svg>
