<svg width="79" height="28" viewBox="0 0 79 28" fill="none" xmlns="http://www.w3.org/2000/svg">
<g id="Logo" clip-path="url(#clip0_109_70)">
<path id="Vector" d="M9.1025 3.5H0.56543V23.9167L9.1025 3.5Z" fill="#4C4C4D"/>
<path id="Vector_2" d="M15.1094 3.5H23.6353V23.9167L15.1094 3.5Z" fill="#4C4C4D"/>
<path id="Vector_3" d="M12.1059 11.025L17.5396 23.9168H13.9746L12.3506 19.8124H8.37402L12.1059 11.025Z" fill="#4C4C4D"/>
<path id="Vector_4" d="M37.5634 16.4827L38.5701 19.3691C38.6034 19.4414 38.6535 19.4748 38.7425 19.4748H40.6779C40.7836 19.4748 40.8003 19.4247 40.7836 19.3191L36.7848 8.21254C36.7681 8.12356 36.7514 8.10687 36.6624 8.10687H34.2598C34.1931 8.10687 34.1541 8.15693 34.1541 8.22923C34.1208 8.8132 34.0707 8.99117 33.9984 9.16358L30.4334 19.3024C30.4167 19.4248 30.4557 19.4748 30.5558 19.4748H32.2854C32.3911 19.4748 32.4412 19.4414 32.4801 19.3358L33.4311 16.4827H37.5634ZM33.9817 14.5973C34.5045 13.0178 35.1942 10.9933 35.4722 9.83653H35.4889C35.8338 11.049 36.6457 13.4516 37.0128 14.5973H33.9817Z" fill="#4C4C4D"/>
<path id="Vector_5" d="M45.9241 19.6467C46.9641 19.6467 48.0709 19.4576 49.1943 18.9738C49.2833 18.9404 49.3 18.9015 49.3 18.818C49.2666 18.5066 49.2277 18.0561 49.2277 17.7113V7.25544C49.2277 7.1887 49.2277 7.15533 49.1443 7.15533H47.2589C47.1866 7.15533 47.1532 7.1887 47.1532 7.27769V10.8204C46.8585 10.7871 46.6527 10.7704 46.408 10.7704C43.3658 10.7704 41.4971 12.7781 41.4971 15.2864C41.4971 18.1951 43.4158 19.6467 45.9241 19.6467ZM47.1532 17.7113C46.8418 17.8114 46.497 17.8503 46.1466 17.8503C44.7673 17.8503 43.6383 17.0717 43.6383 15.1807C43.6383 13.5067 44.8007 12.5167 46.3412 12.5167C46.6527 12.5167 46.9252 12.5501 47.1532 12.6391V17.7113Z" fill="#4C4C4D"/>
<path id="Vector_6" d="M55.314 10.7712C52.7167 10.7712 51.1094 12.7623 51.1094 15.2205C51.1094 17.4174 52.3885 19.6476 55.275 19.6476C57.7166 19.6476 59.4295 17.8512 59.4295 15.1649C59.4295 12.7957 57.978 10.7712 55.314 10.7712ZM55.2083 12.5176C56.6765 12.5176 57.2994 13.7801 57.2994 15.2205C57.2994 17.0002 56.3818 17.8845 55.314 17.8845C53.9958 17.8845 53.2172 16.7778 53.2172 15.1816C53.2172 13.5409 54.0459 12.5176 55.2083 12.5176Z" fill="#4C4C4D"/>
<path id="Vector_7" d="M61.3792 7.15533C61.3069 7.15533 61.2568 7.1887 61.2568 7.27769V19.1128C61.2568 19.1629 61.3069 19.2518 61.3792 19.2685C62.2079 19.5244 63.0755 19.6467 63.9709 19.6467C66.5348 19.6467 69.0264 18.0561 69.0264 14.8526C69.0264 12.5334 67.4358 10.7704 64.9442 10.7704C64.3713 10.7704 63.8374 10.8594 63.3702 11.0151L63.348 7.29437C63.348 7.17202 63.3146 7.15533 63.1923 7.15533H61.3792ZM66.8963 15.0639C66.8963 16.9827 65.5838 17.8837 64.1656 17.8837C63.8708 17.8837 63.6094 17.867 63.3702 17.7947V12.7448C63.6428 12.6391 63.9709 12.5501 64.5771 12.5501C65.9453 12.5501 66.8963 13.4177 66.8963 15.0639Z" fill="#4C4C4D"/>
<path id="Vector_8" d="M76.0632 15.6877C76.9086 15.6877 77.6038 15.671 77.8429 15.6154C77.9319 15.5987 77.9653 15.5653 77.982 15.493C78.032 15.304 78.0543 14.9091 78.0543 14.4252C78.0543 12.779 77.0643 10.7712 74.506 10.7712C71.892 10.7712 70.4404 12.9013 70.4404 15.304C70.4404 17.434 71.5639 19.6476 74.7117 19.6476C75.8908 19.6476 76.6527 19.4585 77.309 19.147C77.3757 19.1137 77.4091 19.058 77.4091 18.9579V17.5175C77.4091 17.434 77.3591 17.4174 77.309 17.4507C76.6527 17.7288 75.9409 17.8679 75.1622 17.8679C73.3992 17.8679 72.5983 16.8946 72.5483 15.6877H76.0632ZM72.5483 14.1972C72.6873 13.3518 73.2212 12.4342 74.417 12.4342C75.7351 12.4342 76.0799 13.5409 76.0799 14.0415C76.0799 14.0582 76.0799 14.1305 76.0799 14.1805C76.0076 14.1972 75.7851 14.1972 75.1289 14.1972H72.5483Z" fill="#4C4C4D"/>
</g>
<defs>
<clipPath id="clip0_109_70">
<rect width="77.5833" height="28" fill="white" transform="translate(0.56543)"/>
</clipPath>
</defs>
</svg>
