<svg width="76" height="28" viewBox="0 0 76 28" fill="none" xmlns="http://www.w3.org/2000/svg">
<g id="Logo" clip-path="url(#clip0_109_81)">
<g id="Vector">
<path d="M26.8023 20.2851V11.7946H26.9536L33.1338 20.2851H35.0786V7.81675H32.9177V16.2858H32.7664L26.5862 7.81675H24.6414V20.2851H26.8023ZM41.194 20.4776C44.0464 20.4776 45.7968 18.6383 45.7968 15.5587C45.7968 12.5004 44.0464 10.6398 41.194 10.6398C38.3632 10.6398 36.5912 12.5004 36.5912 15.5587C36.6129 18.6383 38.3416 20.4776 41.194 20.4776ZM41.194 18.6811C39.6814 18.6811 38.817 17.5476 38.817 15.5587C38.817 13.5911 39.6814 12.4362 41.194 12.4362C42.7066 12.4362 43.571 13.5911 43.571 15.5587C43.571 17.5476 42.7066 18.6811 41.194 18.6811ZM47.7632 8.52251V10.8964H46.2505V12.6073H47.7632V17.7615C47.7632 19.6007 48.6276 20.3279 50.8317 20.3279C51.2423 20.3279 51.6528 20.2851 51.977 20.2209V18.5528C51.7177 18.5742 51.5448 18.5956 51.2423 18.5956C50.3347 18.5956 49.9241 18.1892 49.9241 17.2482V12.6073H51.977V10.8964H49.9241V8.52251H47.7632ZM53.2735 20.2851H55.4344V10.8323H53.2735V20.2851ZM54.354 9.27103C55.0671 9.27103 55.6505 8.6936 55.6505 7.98784C55.6505 7.2607 55.0671 6.68327 54.354 6.68327C53.6409 6.68327 53.0574 7.2607 53.0574 7.98784C53.0574 8.6936 53.6409 9.27103 54.354 9.27103ZM61.3554 20.4776C64.2078 20.4776 65.9581 18.6383 65.9581 15.5587C65.9581 12.5004 64.2078 10.6398 61.3554 10.6398C58.5246 10.6398 56.7526 12.5004 56.7526 15.5587C56.7526 18.6383 58.4813 20.4776 61.3554 20.4776ZM61.3554 18.6811C59.8427 18.6811 58.9783 17.5476 58.9783 15.5587C58.9783 13.5911 59.8427 12.4362 61.3554 12.4362C62.8464 12.4362 63.7324 13.5911 63.7324 15.5587C63.7108 17.5476 62.8464 18.6811 61.3554 18.6811ZM67.233 20.2851H69.394V14.7888C69.394 13.3986 70.2151 12.5218 71.4901 12.5218C72.8082 12.5218 73.4133 13.2489 73.4133 14.6818V20.2851H75.5742V14.1685C75.5742 11.9016 74.4073 10.6398 72.2896 10.6398C70.8634 10.6398 69.9126 11.2814 69.4588 12.3507H69.3075V10.8323H67.2114C67.2331 10.8323 67.233 20.2851 67.233 20.2851Z" fill="#4C4C4D"/>
<path fill-rule="evenodd" clip-rule="evenodd" d="M3.92188 7.01872C4.55081 7.52611 4.7783 7.48605 5.95589 7.40594L17.0493 6.73833C17.2901 6.73833 17.0894 6.49799 17.0091 6.47128L15.1625 5.14942C14.8145 4.88238 14.3328 4.56192 13.4362 4.64204L2.70415 5.42981C2.31608 5.46987 2.23579 5.67015 2.39637 5.81703L3.92188 7.01872ZM4.59096 9.59569V21.2388C4.59096 21.8663 4.89874 22.0933 5.60797 22.0533L17.7987 21.3456C18.5079 21.3056 18.5882 20.8783 18.5882 20.3709V8.80792C18.5882 8.30053 18.3874 8.02014 17.9592 8.06019L5.2199 8.80792C4.75154 8.84797 4.59096 9.08831 4.59096 9.59569ZM16.6211 10.2232C16.7014 10.5704 16.6211 10.9309 16.2731 10.971L15.6844 11.0911V19.6899C15.1758 19.957 14.7075 20.1172 14.306 20.1172C13.6771 20.1172 13.5165 19.9169 13.0482 19.3294L9.20763 13.3076V19.1291L10.4254 19.3962C10.4254 19.3962 10.4254 20.1039 9.4485 20.1039L6.74541 20.2641C6.66512 20.1039 6.74541 19.7166 7.01304 19.6365L7.72227 19.4362V11.7454L6.74541 11.6653C6.66512 11.3181 6.86584 10.8107 7.41449 10.7707L10.3183 10.5704L14.3194 16.659V11.2781L13.3024 11.1579C13.2221 10.7306 13.5433 10.4102 13.9314 10.3701L16.6211 10.2232ZM1.80757 4.36164L12.9813 3.54716C14.3462 3.42699 14.7075 3.5071 15.5639 4.13465L19.1234 6.63151C19.7122 7.05878 19.913 7.17895 19.913 7.64628V21.359C19.913 22.2135 19.6052 22.7209 18.5079 22.801L5.54106 23.5888C4.71139 23.6288 4.32333 23.5087 3.89511 22.9612L1.25893 19.5564C0.790569 18.9289 0.589844 18.4615 0.589844 17.9141V5.72356C0.589844 5.0159 0.911003 4.44175 1.80757 4.36164Z" fill="#4C4C4D"/>
</g>
</g>
<defs>
<clipPath id="clip0_109_81">
<rect width="75.25" height="28" fill="white" transform="translate(0.589844)"/>
</clipPath>
</defs>
</svg>
