<svg width="66" height="28" viewBox="0 0 66 28" fill="none" xmlns="http://www.w3.org/2000/svg">
<g id="Logo" clip-path="url(#clip0_109_85)">
<path id="Vector" d="M9.60008 22.2039C8.62599 22.3749 7.63477 22.4262 6.60941 22.5628L3.48189 13.4027V22.9559C2.5078 23.0584 1.61915 23.1952 0.696289 23.3319V5.83188H3.29402L6.84863 15.7612V5.83188H9.60008V22.2039ZM14.9834 12.2406C16.043 12.2406 17.6666 12.1893 18.6406 12.1893V14.9236C17.4272 14.9236 16.0088 14.9236 14.9834 14.9749V19.0423C16.5899 18.9398 18.1964 18.803 19.8198 18.7517V21.3834L12.249 21.9817V5.83188H19.8198V8.56626H14.9834V12.2406ZM29.9882 8.56632H27.1514V21.1444C26.2285 21.1444 25.3056 21.1444 24.4171 21.1785V8.56632H21.5802V5.83188H29.9884L29.9882 8.56632ZM34.4316 12.0526H38.1743V14.787H34.4316V20.9906H31.7483V5.83188H39.3877V8.56626H34.4316V12.0526ZM43.831 18.598C45.3862 18.6321 46.9584 18.7519 48.4795 18.8372V21.5374C46.0357 21.3835 43.5918 21.2299 41.0967 21.1785V5.83188H43.831V18.598ZM50.7866 21.7254C51.6581 21.7768 52.581 21.8281 53.4697 21.9304V5.83188H50.7866V21.7254ZM65.4497 5.83188L61.9804 14.1547L65.4497 23.3319C64.4243 23.1952 63.3989 23.0072 62.3735 22.8362L60.4082 17.7778L58.4089 22.4262C57.4175 22.2552 56.4605 22.2039 55.4694 22.0672L58.9899 14.052L55.8111 5.83188H58.7504L60.5449 10.4291L62.459 5.83188H65.4497V5.83188Z" fill="#4C4C4D"/>
</g>
<defs>
<clipPath id="clip0_109_85">
<rect width="64.75" height="28" fill="white" transform="translate(0.696289)"/>
</clipPath>
</defs>
</svg>
