<svg width="83" height="28" viewBox="0 0 83 28" fill="none" xmlns="http://www.w3.org/2000/svg">
<g id="Logo" clip-path="url(#clip0_109_57)">
<path id="Vector" d="M13.2473 1.79593C6.48183 1.79593 0.99707 7.28054 0.99707 14.046C0.99707 20.8118 6.48183 26.2959 13.2473 26.2959C20.0135 26.2959 25.4977 20.8118 25.4977 14.046C25.4977 7.28098 20.0135 1.79651 13.2472 1.79651L13.2473 1.79593ZM18.8652 19.4641C18.6458 19.8239 18.1747 19.938 17.8149 19.7171C14.9386 17.9603 11.3178 17.5624 7.05365 18.5366C6.64274 18.6302 6.23315 18.3728 6.13953 17.9617C6.04546 17.5507 6.3019 17.1411 6.71383 17.0474C11.3803 15.9813 15.383 16.4404 18.6121 18.4137C18.972 18.6346 19.0861 19.1042 18.8652 19.4641ZM20.3646 16.1285C20.0881 16.5779 19.5 16.7198 19.051 16.4433C15.7581 14.4193 10.7387 13.8332 6.84388 15.0154C6.33876 15.168 5.80527 14.8833 5.65196 14.3791C5.49983 13.874 5.78464 13.3415 6.28888 13.1879C10.7378 11.838 16.2686 12.4919 20.0501 14.8156C20.4992 15.0921 20.6411 15.6801 20.3646 16.1286V16.1285ZM20.4933 12.6551C16.5451 10.3101 10.0311 10.0944 6.26153 11.2385C5.6562 11.4221 5.01607 11.0804 4.83263 10.4751C4.64919 9.86946 4.99061 9.22976 5.59637 9.04574C9.92359 7.73211 17.1171 7.98592 21.6627 10.6844C22.2083 11.0075 22.3868 11.7107 22.0635 12.2545C21.7417 12.7989 21.0366 12.9784 20.4939 12.6551H20.4933ZM34.3259 13.1045C32.2106 12.6001 31.8347 12.2461 31.8347 11.5023C31.8347 10.7995 32.4959 10.3266 33.4804 10.3266C34.4341 10.3266 35.3791 10.6857 36.3709 11.425C36.4002 11.4474 36.4382 11.4563 36.4748 11.4505C36.5128 11.4449 36.545 11.4246 36.567 11.394L37.5997 9.93822C37.6421 9.87824 37.6304 9.79559 37.5734 9.7498C36.3929 8.80291 35.0646 8.34255 33.5111 8.34255C31.2276 8.34255 29.6317 9.71309 29.6317 11.674C29.6317 13.7768 31.0082 14.5214 33.3867 15.0962C35.4099 15.5624 35.7522 15.953 35.7522 16.651C35.7522 17.4249 35.0617 17.9061 33.9499 17.9061C32.7153 17.9061 31.7074 17.4892 30.581 16.515C30.5532 16.4901 30.5152 16.4799 30.4801 16.4813C30.4421 16.4843 30.4084 16.5018 30.385 16.5296L29.2264 17.9076C29.1782 17.9661 29.184 18.051 29.2396 18.1007C30.5503 19.271 32.1624 19.8883 33.9031 19.8883C36.3636 19.8883 37.9537 18.5439 37.9537 16.4623C37.9581 14.7059 36.9063 13.7331 34.3303 13.1064L34.3259 13.1045ZM43.5213 11.0185C42.4549 11.0185 41.5801 11.4386 40.8575 12.2995V11.3305C40.8575 11.254 40.796 11.1917 40.72 11.1917H38.8256C38.7495 11.1917 38.6881 11.254 38.6881 11.3305V22.0972C38.6881 22.1732 38.7495 22.2361 38.8256 22.2361H40.72C40.796 22.2361 40.8575 22.1732 40.8575 22.0972V18.699C41.5801 19.5079 42.4549 19.9044 43.5213 19.9044C45.5034 19.9044 47.5104 18.3786 47.5104 15.4619C47.5134 12.5445 45.5064 11.0184 43.5227 11.0184L43.5213 11.0185ZM45.3074 15.4619C45.3074 16.9465 44.3931 17.9837 43.0824 17.9837C41.7878 17.9837 40.8106 16.8997 40.8106 15.4619C40.8106 14.0239 41.7878 12.9402 43.0824 12.9402C44.3712 12.9401 45.3074 14.0004 45.3074 15.4617V15.4619ZM52.6523 11.0185C50.0997 11.0185 48.1 12.984 48.1 15.4936C48.1 17.9763 50.0865 19.9205 52.6216 19.9205C55.183 19.9205 57.1886 17.9617 57.1886 15.4619C57.1886 12.9705 55.1962 11.0188 52.6523 11.0188V11.0185ZM52.6523 17.9983C51.2948 17.9983 50.2708 16.907 50.2708 15.4611C50.2708 14.0087 51.2597 12.9547 52.6216 12.9547C53.9879 12.9547 55.0177 14.0456 55.0177 15.4929C55.0177 16.945 54.023 17.9983 52.6523 17.9983ZM62.6391 11.1917H60.5546V9.06095C60.5546 8.98459 60.4931 8.92228 60.417 8.92228H58.5227C58.4466 8.92228 58.3837 8.98459 58.3837 9.06095V11.1917H57.4738C57.3977 11.1917 57.3363 11.254 57.3363 11.3305V12.9582C57.3363 13.0346 57.3977 13.0971 57.4738 13.0971H58.3837V17.3093C58.3837 19.0106 59.2307 19.8736 60.9027 19.8736C61.5815 19.8736 62.1447 19.7332 62.6757 19.4319C62.7195 19.4085 62.7459 19.3617 62.7459 19.3119V17.7613C62.7459 17.7145 62.721 17.6692 62.68 17.6443C62.6391 17.618 62.5879 17.6165 62.5455 17.6384C62.1812 17.8213 61.8287 17.9061 61.4337 17.9061C60.8266 17.9061 60.5546 17.6297 60.5546 17.0123V13.0978H62.6391C62.7152 13.0978 62.7766 13.0355 62.7766 12.959V11.3314C62.7795 11.2549 62.7181 11.1926 62.6406 11.1926L62.6391 11.1917ZM69.9006 11.2001V10.9384C69.9006 10.1685 70.1961 9.82514 70.8573 9.82514C71.2523 9.82514 71.5697 9.90355 71.9252 10.022C71.9691 10.0358 72.0144 10.0289 72.0495 10.0027C72.0861 9.97654 72.1066 9.93456 72.1066 9.89009V8.29414C72.1066 8.23313 72.0685 8.17916 72.0086 8.16116C71.6341 8.04955 71.1543 7.93501 70.4345 7.93501C68.6865 7.93501 67.7605 8.92008 67.7605 10.7827V11.1835H66.8506C66.7745 11.1835 66.7116 11.2458 66.7116 11.3222V12.9582C66.7116 13.0346 66.7745 13.0971 66.8506 13.0971H67.7605V19.5928C67.7605 19.6703 67.8234 19.7318 67.8995 19.7318H69.7924C69.8699 19.7318 69.9313 19.6703 69.9313 19.5928V13.0975H71.6999L74.4091 19.5928C74.1019 20.2745 73.7991 20.4105 73.3865 20.4105C73.053 20.4105 72.7005 20.311 72.3421 20.1136C72.3084 20.096 72.2675 20.0931 72.2324 20.1033C72.1958 20.1165 72.1651 20.1428 72.1505 20.1779L71.5083 21.5866C71.4775 21.6539 71.5039 21.7314 71.5682 21.7666C72.2382 22.1293 72.8424 22.2844 73.5899 22.2844C74.9884 22.2844 75.7622 21.632 76.4424 19.8795L79.7279 11.3896C79.7455 11.3469 79.7396 11.2987 79.7133 11.2608C79.6884 11.2232 79.646 11.2005 79.6007 11.2005H77.6288C77.5688 11.2005 77.5161 11.2381 77.4971 11.2935L75.4769 17.0621L73.2651 11.2897C73.2447 11.236 73.1935 11.2005 73.1364 11.2005H69.9006V11.2001ZM65.6906 11.1917H63.7962C63.7201 11.1917 63.6572 11.254 63.6572 11.3305V19.5928C63.6572 19.6703 63.7201 19.7318 63.7962 19.7318H65.6906C65.7666 19.7318 65.8295 19.6703 65.8295 19.5928V11.3311C65.8295 11.2546 65.7681 11.1923 65.6906 11.1923V11.1917ZM64.7544 7.42945C64.0039 7.42945 63.3954 8.03682 63.3954 8.78711C63.3954 9.53784 64.0039 10.1459 64.7544 10.1459C65.5048 10.1459 66.1119 9.53784 66.1119 8.78711C66.1119 8.03697 65.5033 7.42945 64.7544 7.42945ZM81.3458 13.8484C80.5969 13.8484 80.0132 13.2464 80.0132 12.5154C80.0132 11.7845 80.6042 11.1756 81.3532 11.1756C82.1021 11.1756 82.6858 11.7774 82.6858 12.5078C82.6858 13.2388 82.0948 13.8484 81.3458 13.8484ZM81.3532 11.3082C80.67 11.3082 80.1536 11.8509 80.1536 12.5154C80.1536 13.1797 80.6671 13.7151 81.3458 13.7151C82.029 13.7151 82.5454 13.1728 82.5454 12.5078C82.5454 11.8436 82.0319 11.3082 81.3532 11.3082ZM81.6487 12.6449L82.0261 13.1727H81.7072L81.3678 12.6885H81.0767V13.1727H80.8104V11.7736H81.4336C81.7598 11.7736 81.9734 11.94 81.9734 12.2199C81.9749 12.4493 81.8417 12.5895 81.6501 12.6449H81.6487ZM81.4234 12.0137H81.0767V12.4562H81.4234C81.596 12.4562 81.6998 12.3715 81.6998 12.2347C81.6998 12.0908 81.596 12.0137 81.4234 12.0137Z" fill="#4C4C4D"/>
</g>
<defs>
<clipPath id="clip0_109_57">
<rect width="81.6667" height="28" fill="white" transform="translate(0.953125)"/>
</clipPath>
</defs>
</svg>
